<?xml version="1.0" encoding="UTF-8" standalone="no"?>
<svg
   xmlns:dc="http://purl.org/dc/elements/1.1/"
   xmlns:cc="http://creativecommons.org/ns#"
   xmlns:rdf="http://www.w3.org/1999/02/22-rdf-syntax-ns#"
   xmlns:svg="http://www.w3.org/2000/svg"
   xmlns="http://www.w3.org/2000/svg"
   xmlns:sodipodi="http://sodipodi.sourceforge.net/DTD/sodipodi-0.dtd"
   xmlns:inkscape="http://www.inkscape.org/namespaces/inkscape"
   id="Layer_1"
   data-name="Layer 1"
   viewBox="0 0 793.18997 365.98642"
   version="1.1"
   sodipodi:docname="udelt logo v11 blontr.svg"
   inkscape:version="0.92.4 (5da689c313, 2019-01-14)"
   width="793.18994"
   height="365.98642">
  <metadata
     id="metadata31">
    <rdf:RDF>
      <cc:Work
         rdf:about="">
        <dc:format>image/svg+xml</dc:format>
        <dc:type
           rdf:resource="http://purl.org/dc/dcmitype/StillImage" />
        <dc:title>hvit medium</dc:title>
      </cc:Work>
    </rdf:RDF>
  </metadata>
  <sodipodi:namedview
     pagecolor="#ffffff"
     bordercolor="#666666"
     borderopacity="1"
     objecttolerance="10"
     gridtolerance="10"
     guidetolerance="10"
     inkscape:pageopacity="0"
     inkscape:pageshadow="2"
     inkscape:window-width="1920"
     inkscape:window-height="1001"
     id="namedview29"
     showgrid="false"
     inkscape:snap-global="false"
     inkscape:zoom="0.70710678"
     inkscape:cx="210.9985"
     inkscape:cy="255.4168"
     inkscape:window-x="-9"
     inkscape:window-y="-9"
     inkscape:window-maximized="1"
     inkscape:current-layer="g338" />
  <defs
     id="defs12">
    <style
       id="style10">.cls-1{fill:#fff;}</style>
  </defs>
  <title
     id="title14">hvit medium</title>
  <g
     transform="translate(-20.865241,5.3312402e-6)"
     style="display:inline"
     inkscape:label="Text 11 - Black"
     id="g350"
     inkscape:groupmode="layer">
    <g
       style="display:inline"
       inkscape:label="Raven 11 - Black"
       id="g338"
       inkscape:groupmode="layer">
      <path
         sodipodi:nodetypes="ccscscccccsscccsccccccccscsscsssscsccsscsccccccccccccccccsccccccccsccccccscccccscscscccsscccsccsssccccscscccscccccccssssscsssccccccscsccssscscssccsccccscccccccccsccccccccccccscsscsccc"
         inkscape:connector-curvature="0"
         id="path336"
         d="m 697.98073,114.87386 0.40484,-0.58877 c 0.66958,-0.67663 1.40065,-1.1556 1.59367,-1.23024 0.31277,-0.12101 0.56323,-0.11181 0.82621,-0.20373 0.45561,-0.39632 1.50839,-0.2874 2.25685,-0.37639 0.11638,-0.0138 0.71518,-0.004 1.74637,-0.0286 l 1.87489,-0.0449 0.0719,-0.95313 c 0.0516,-0.68369 0.14589,-1.25636 -0.25839,-1.85665 -1.22548,-2.37122 -1.19259,-1.87521 -1.64884,-2.49891 -0.16634,-0.176 -0.73429,-0.86418 -1.26214,-1.52928 -0.46232,-0.58254 -2.03195,-2.60457 -3.08825,-3.68125 -0.14973,-0.15262 0.14962,0.4989 0.005,0.3543 -1.72149,-1.71638 -2.16764,-1.6999 -2.35453,-2.533804 -0.0728,-0.3249 0.16383,-1.19283 -1.66271,1.300894 1.22809,-2.291144 0.93695,-3.254874 0.78548,-3.537824 -0.61822,-1.15487 -0.6401,-0.46979 -0.49713,-2.85922 0.116,-1.93922 0.082,-2.47721 -0.15176,-2.4001 -0.16572,0.0546 -0.43579,0.36295 -0.60013,0.68507 -0.29621,0.58052 -0.29889,0.57874 -0.30242,-0.20054 -0.4981,-0.76311 -1.44743,-1.00976 -1.99943,-1.38592 -0.43243,-0.0848 -1.03663,-0.27811 -1.34268,-0.42948 -1.55158,-0.23025 -1.07902,0.38051 -2.61404,0.99407 -5.65906,2.36651 -14.68057,1.71574 -14.68057,1.71574 -4.7887,4.30984 -15.22076,13.232994 -18.71939,15.414044 -3.38828,2.11227 0.17118,-2.50866 -5.2405,1.00686 -0.50807,0.33548 5.83766,-8.7851 5.28183,-8.33331 -1.72972,1.40595 -3.44662,3.3261 -5.26321,5.63547 -0.27969,0.35556 -1.82127,4.03491 -2.1061,4.40847 0.23396,-1.70364 0.61913,-2.46823 0.29315,-2.02925 -0.50149,0.67531 -1.01253,1.37507 -1.53523,2.09694 -0.32539,0.44937 -3.03347,5.64728 -3.35006,6.08914 -0.31795,0.44376 0.98223,-2.85209 0.67561,-2.42161 -2.8185,3.95707 -5.10626,7.23244 -5.90579,7.60591 0.33146,-1.00443 3.185,-6.15179 2.56364,-6.12936 -0.66456,0.024 -2.68351,1.06019 -4.06532,2.54728 2.03437,-3.77096 6.83799,-12.18077 6.83799,-12.18077 0,0 -3.78089,2.78145 -6.79805,4.02675 -2.45878,1.01484 -6.14351,3.76437 -6.79609,2.5629 -0.13694,-0.25212 1.89212,-3.98655 2.25649,-4.21175 0.39053,-0.24137 3.00346,-3.19007 2.58982,-3.19007 -0.1996,0 -1.27197,-0.16369 -2.23485,0.68278 -0.55671,0.47479 -1.5431,1.16755 -3.75937,1.6508 0.76653,-0.98316 2.82004,-2.63902 3.35121,-3.17813 -1.08,0.40901 -4.50311,2.4645 -4.50311,2.4645 0.71198,-1.47027 0.70356,-4.80953 1.64719,-6.04202 0,-0.10432 0.56593,-0.56052 0.99835,-0.81202 0.43244,-0.25153 0.84067,-0.49637 0.90721,-0.57294 0.12165,-0.1399 1.65813,-0.823064 3.88788,-1.939974 0.66002,-0.33061 1.70729,-0.97083 2.4137,-1.4227 1.18486,-0.50672 2.26051,-1.40875 2.94248,-2.42683 5.21066,-7.11442 8.41477,-8.16048 9.08636,-8.91567 -1.56273,0.29657 -3.79419,2.47054 -5.65823,3.3945 1.30095,-1.57531 6.68321,-5.7258 7.38239,-6.06604 -0.59986,-0.19098 -0.91433,0.30606 -3.12428,1.3392 3.37557,-4.37191 6.24258,-5.16745 9.92619,-7.23832 0.9301,-0.52765 4.46802,-3.08478 4.71748,-3.40967 0.22332,-0.29085 2.19552,-1.45903 4.23482,-2.50837 2.04308,-1.05131 4.67342,-2.99403 5.56302,-4.108677 0.26613,-0.333425 0.60306,-0.611285 0.74875,-0.617425 0.14571,-0.006 0.46084,-0.22769 0.70028,-0.49227 0.23946,-0.2646 0.99117,-0.83386 1.67047,-1.26503 0.67931,-0.43117 1.35903,-0.89508 1.51049,-1.03093 0.15146,-0.13584 0.83187,-0.6803 1.51201,-1.20991 0.83486,-0.83194 1.80064,-1.49585 2.7046,-2.12159 0.21351,-0.19913 0.27177,-0.69786 -1.60648,0.20812 2.54116,-1.92244 3.7639,-2.16171 4.89607,-2.6226 0.16797,-0.0684 0.3005,-0.20291 0.45011,-0.30263 1.59318,-1.06196 2.95113,-1.99349 3.01765,-2.07006 2.12123,-1.12453 3.95631,-3.01541 5.40538,-4.42676 2.00822,-2.07205 6.29869,-5.92864 6.29869,-5.92864 -1.19644,0.53255 -5.38709,3.31726 -10.28547,8.6857 3.70642,-6.07218 9.14541,-9.8239 12.56407,-10.90314 2.7591,-4.02448 5.8492,-7.45838 9.2487,-10.22025 0.60736,-0.49343 -3.45556,2.10673 -7.97514,7.10841 4.7939,-9.45351 10.59187,-9.34131 11.54977,-9.6897 2.2076,-1.40468 4.52832,-2.54733 6.95721,-3.40928 0.8327,-0.65048 1.67472,-1.32123 2.43462,-2.05482 -0.21302,-0.2124 -0.36726,0.11012 -2.38964,1.21425 1.61962,-1.59675 1.49921,-2.52366 3.96637,-3.13703 0.26743,-0.0665 -0.44095,0.69003 -0.27663,0.47148 0.34438,-0.54959 0.61691,-1.14959 0.78861,-1.73876 0.0552,-0.18952 -0.30195,-0.2311 -2.06174,1.61937 1.32789,-2.12767 2.25078,-2.5516 2.26034,-2.72929 0.0112,-0.20851 0.005,-0.40978 -0.0195,-0.60047 -0.58621,-1.19588 -1.07344,-2.645215 -1.93539,-3.631711 0,-0.432709 -1.86805,-2.315681 -2.7821,-2.804326 -0.64727,-0.34602 -3.93308,-1.427708 -7.58785,-2.497912 -0.71383,-0.209026 -1.61955,-0.282087 -1.98395,-0.380048 -1.13961,-0.306357 -4.14341,-0.9980709 -5.66929,-1.2105469 -0.26612,-0.103246 -0.95229,-0.314657 -1.52481,-0.469812 -1.69409,0.05935 -1.86273,-0.667648 0.37568,-2.315151 1.2705,-1.059914 3.45181,-2.478481 5.44241,-2.870386 2.76992,-0.545333 5.53641,0.22518 7.96982,0.222044 -0.90373,-0.267996 -1.38283,-0.446582 -1.54374,-0.491849 -0.25087,-0.202288 -0.94615,-0.103524 -1.22295,-0.341938 -0.0832,-0.07166 0.82778,-0.172934 0.93509,-0.178979 1.03597,-0.05835 4.59354,-0.242048 5.4627,-0.178261 0.10512,0.0077 -3.55943,-0.20609 -3.72734,-0.223402 1.39672,-0.446988 3.29021,-0.749845 4.91664,-0.618156 1.01138,-0.08808 1.37189,0.07411 1.42348,-1.21e-4 1.34904,-0.626298 2.37152,-0.705957 3.62884,-1.24337604 0.0666,-0.09402 1.15516,-0.342231 2.41922,-0.551587 3.23337,-0.535522 4.56798,-0.499069 9.69518,0.80596504 2.31117,0.779372 2.6554,0.853561 5.05075,3.308354 2.60837,2.673106 3.05672,3.703169 4.09856,5.034468 0.55303,1.0791529 1.08911,2.1870949 1.60395,3.3090859 0.83429,1.927952 0.68824,-0.0227 3.9843,8.354455 -0.47037,-0.46559 -1.55337,-2.31439 -1.37328,-1.90785 1.05201,2.37484 1.99982,8.56815 2.06351,10.94564 -0.91196,-2.98182 -1.04708,-3.49618 -1.6442,-5.15224 -0.0157,0.37172 1.51205,6.20962 1.26662,8.07225 -0.46695,-0.97429 -0.50506,-1.68181 -0.59081,0.61014 -0.26913,-0.62573 -0.31853,-1.80142 -0.71492,-2.35535 0.22595,2.09052 0.11794,3.11092 -0.0959,4.96772 -0.12037,1.04481 -0.0975,1.73748 0.0637,1.93538 0.27845,0.3417 2.07164,5.62096 2.16904,9.61128 0.0264,1.08315 -1.31808,-4.08621 -1.28127,-2.841 0.0463,1.56778 0.0318,3.1409 -0.0572,4.39946 -0.0576,0.81378 0.50536,5.85346 -1.11355,8.71033 -0.21955,0.38745 0.52561,-5.63769 0.2946,-4.8965 -0.41874,1.34356 -0.92748,2.88176 -1.15856,3.46879 -0.44833,1.00382 -1.58857,6.88256 -3.23739,9.5936 -0.38649,0.63549 1.17042,-5.24157 0.94021,-4.53214 -0.54123,1.66788 -1.35269,3.28745 -2.24997,4.85748 -0.74203,1.298395 -1.80791,4.595902 -2.56302,5.825862 -3.30833,6.71656 -6.01914,10.57 -7.45789,11.65679 1.61065,-3.84086 2.92431,-5.57491 3.63142,-8.37019 0,0 -1.34396,1.57125 -2.00924,2.40733 -0.33531,1.30705 -5.35009,9.65712 -6.58046,10.26516 0.53106,-0.87072 2.72655,-5.08228 2.88788,-6.20856 -0.91057,0.9474 -1.85506,1.9069 -2.69752,2.73938 -1.17525,1.16132 -2.15194,2.07543 -2.56102,2.36465 -3.24921,2.41783 -5.21674,3.26875 -7.90929,4.72561 -0.37081,0.20063 -1.13103,1.31874 -2.72783,2.34354 0.79131,-1.86131 0.7924,-1.25464 0.37454,-1.00367 -0.60602,0.4783 -1.61731,0.97288 -2.68823,1.39832 -0.58198,0.2312 -2.99354,2.29814 -3.55528,2.4748 -0.45655,0.14358 0.92386,-1.59155 0.54709,-1.50042 -0.55352,0.13388 -0.9888,0.20322 -1.21139,0.18467 -0.31379,0.59483 -0.84009,1.54059 -1.36834,2.54977 -0.15515,0.29639 -0.26627,2.896354 -0.549,4.212854 -0.18491,-1.70783 -0.52351,-2.05375 -0.74438,-1.50437 -0.21689,0.53947 -0.36289,1.00472 -0.39023,1.33055 -0.008,0.0921 -0.34879,-0.36548 -0.27277,-0.18418 2.00618,4.39661 1.26261,3.14672 4.2368,6.4426 0.47117,0.50637 0.85668,0.97857 0.85668,1.04933 0,0.0707 0.60069,0.7439 1.33489,1.49587 l 1.3349,1.3672 3.83396,-0.0767 2.11784,0.15006 c 0,0 0.80359,0.10445 1.2723,0.26326 0.43503,0.14735 1.16648,0.57587 1.41596,0.89496 0.41393,0.57307 0.32877,0.7262 0.35423,1.07113 -10.70814,-0.14517 -19.81905,0.0671 -30.89064,-0.11549 z m 17.04914,-2.55495 c 0,-0.13867 -0.10732,-0.38361 -0.23827,-0.54431 -0.88732,-1.08809 -1.41363,-1.88281 -1.87576,-2.83237 -1.57907,-1.66205 -2.09945,-2.2701 -3.16838,-3.50791 -1.7e-4,-0.0711 -0.3541,-0.33805 -0.78654,-0.59321 -0.88914,-0.52463 -1.76529,-1.8344 -1.77726,-2.28426 -0.004,-0.16631 0.0227,0.22464 -0.12584,0.22464 -0.0672,-0.33327 -0.0504,-0.23692 -0.13085,-0.66529 0.0766,-0.36589 -0.0401,-0.94235 -0.25951,-2.02984 0,0 0.28442,-0.944124 0.21777,-1.643994 0.38265,-0.9027 0.65261,-1.74404 1.25278,-2.27407 0.33578,-0.38735 0.55514,-1.10094 0.74117,-1.53943 0.4193,-0.43852 0.59246,-1.13918 0.72405,-1.22052 -0.40507,-0.28243 -0.68472,-0.17857 -1.30763,-0.0226 0,0.20062 -0.0856,0.20053 -0.32763,-2.2e-4 -0.44939,-0.37297 -2.40229,-0.42777 -2.52129,-0.0707 -0.87096,0.50202 -1.14057,1.31544 -1.21797,2.19489 0.0276,0.36235 -0.18913,0.31959 -0.48164,0.94189 -0.73641,1.56663 -0.65911,2.70466 0.22363,4.451954 0.11676,0.23103 0.21221,0.59099 0.21221,0.79988 0,0.10663 -0.61228,-0.55616 -0.38494,-0.26903 0.21804,0.27538 1.26886,1.49632 1.59455,1.80859 0.66529,0.63787 1.42625,1.99918 1.42625,2.08827 1.6818,1.96737 2.02739,2.87951 3.70088,4.51615 0.6258,0.61201 1.69529,1.01001 2.71652,2.05858 0.62884,0.64875 1.79367,0.91707 1.79367,0.41316 z"
         style="display:inline;opacity:1;fill:#000000;stroke-width:0.24192213" />
    </g>
    <path
       sodipodi:nodetypes="cccccccccccccccccccccccccccccccccccccccccccccccccccccccccccccccccccccccccccccc"
       inkscape:connector-curvature="0"
       id="path340"
       d="m 428.22694,112.28914 c -1.57878,0.021 -2.86972,1.26488 -2.94922,2.8418 h -0.004 v 248.01368 h 0.004 c 0.0795,1.57692 1.37044,2.8208 2.94922,2.8418 h 95.61134 5.86914 v -0.006 c 1.59189,-0.0794 2.84226,-1.39246 2.84375,-2.98633 3e-5,-0.008 3e-5,-0.0156 0,-0.0234 v -5.91406 h 0.008 v -10.45898 h -0.004 c -0.0794,-1.59189 -1.39246,-2.84227 -2.98633,-2.84375 -0.008,-3e-5 -0.0156,-3e-5 -0.0234,0 h -5.91407 v -0.004 h -9.54492 v 0.006 h -46.94141 c -0.0449,1.8e-4 -0.0898,1.8e-4 -0.13477,0 -9.20964,-0.009 -16.79675,-7.23345 -17.25586,-16.43164 h -0.0352 v -0.86914 -34.61524 h 0.006 v -49.74609 h 0.006 c 0.15683,-3.12807 2.73714,-5.58473 5.86914,-5.58789 0.0156,-6e-5 0.0313,-6e-5 0.0469,0 h 10.98047 0.90429 20.78321 v -0.0293 h 5.91407 c 0.008,3e-5 0.0156,3e-5 0.0234,0 1.59387,-0.001 2.90694,-1.25186 2.98633,-2.84375 h 0.006 v -0.15039 -3.50586 h -0.0137 v -6.27539 h 0.01 v -3.25586 -0.15039 h -0.008 c -0.0737,-1.44192 -1.16625,-2.62569 -2.59766,-2.81445 h -28.29493 v -0.004 h -10.69336 c -0.0156,6e-5 -0.0313,6e-5 -0.0469,0 -3.13272,-0.003 -5.71331,-2.461 -5.86914,-5.58984 h -0.006 V 186.4355 h -0.006 v -34.61525 -0.86914 h 0.0352 c 0.45911,-9.19819 8.04622,-16.42264 17.25586,-16.43164 0.045,-1.8e-4 0.0899,-1.8e-4 0.13477,0 h 38.94141 v 0.006 h 9.54492 v -0.004 h 5.91407 c 0.008,3e-5 0.0154,3e-5 0.0234,0 1.59387,-0.001 2.90693,-1.25186 2.98633,-2.84376 h 0.004 v -10.45898 h -0.008 v -5.91406 c 3e-5,-0.008 3e-5,-0.0154 0,-0.0234 -10e-4,-1.59388 -1.25186,-2.90693 -2.84375,-2.98633 v -0.006 h -5.86914 z"
       style="display:inline;fill:#000000;stroke-width:0.98609006" />
    <path
       sodipodi:nodetypes="cccccccccccccccccccccccccccccccccccccc"
       inkscape:connector-curvature="0"
       id="path342"
       d="m 580.60097,112.28915 c -1.57878,0.021 -2.86972,1.26488 -2.94922,2.8418 h -0.004 v 248.01367 h 0.004 c 0.0795,1.57692 1.37044,2.8208 2.94922,2.8418 h 95.61133 5.86914 v -0.006 c 1.59189,-0.0794 2.84226,-1.39246 2.84375,-2.98633 3e-5,-0.008 3e-5,-0.0156 0,-0.0234 v -5.91406 h 0.01 v -10.45898 h -0.004 c -0.0794,-1.59189 -1.39246,-2.84227 -2.98633,-2.84375 -0.008,-3e-5 -0.0156,-3e-5 -0.0234,0 h -5.91406 v -0.004 h -9.54492 v 0.006 h -46.94141 c -0.0449,1.8e-4 -0.0898,1.8e-4 -0.13477,0 -9.20964,-0.009 -16.79675,-7.23345 -17.25586,-16.43164 h -0.0351 v -0.86914 -34.61524 h 0.006 V 186.43564 h -0.006 v -3.02344 -31.5918 -0.86914 -35.81836 h -0.006 c -0.0794,-1.59189 -1.39246,-2.84227 -2.98633,-2.84375 h -5.93555 z"
       style="display:inline;fill:#000000;stroke-width:0.98609006" />
    <path
       sodipodi:nodetypes="cccccccccccccccccccccccccccccccccccccccccccccccc"
       inkscape:connector-curvature="0"
       id="path344"
       d="m 678.87909,112.28909 v 0.006 c -1.59189,0.0794 -2.84226,1.39246 -2.84375,2.98633 -3e-5,0.008 -3e-5,0.0156 0,0.0234 v 5.91407 h -0.0117 v 10.45897 h 0.004 c 0.0794,1.59189 1.39246,2.84227 2.98632,2.84376 0.008,2e-5 0.0156,2e-5 0.0234,0 h 5.91406 v 0.004 h 9.54492 v -0.006 h 18.94141 c 0.0449,-1.8e-4 0.0898,-1.8e-4 0.13477,0 9.00214,0.009 16.4353,6.91696 17.19531,15.81836 v 212.80664 h 0.004 c 0.0795,1.57691 1.37043,2.8208 2.94921,2.8418 h 0.13477 12.43164 5.93555 0.13672 c 1.57878,-0.021 2.8697,-1.26489 2.94921,-2.8418 h 0.004 V 150.31839 c 0.76927,-8.89193 8.19783,-15.79004 17.19336,-15.79883 0.045,-1.8e-4 0.0899,-1.8e-4 0.13477,0 h 18.9414 v 0.006 h 9.54492 v -0.004 h 5.91407 c 0.008,2e-5 0.0154,2e-5 0.0234,0 1.59386,-0.001 2.90693,-1.25187 2.98633,-2.84376 h 0.004 v -10.45902 h -0.01 v -5.91406 c 3e-5,-0.008 3e-5,-0.0154 0,-0.0234 -10e-4,-1.59387 -1.25186,-2.90693 -2.84375,-2.98633 v -0.006 h -5.86914 -48.97265 -18.63868 -48.97265 z"
       style="display:inline;fill:#000000;stroke-width:0.98609006" />
    <path
       sodipodi:nodetypes="cccccccccccczcccccczcccccccccccccccc"
       inkscape:connector-curvature="0"
       id="path346"
       d="m 255.57289,112.24835 c -0.9742,0.002 -1.9803,0.0129 -2.9785,0.0215 -15.7655,-0.0193 -7.4102,-0.0183 -24.0508,-0.0176 -1.5787,0.021 -2.8697,1.26487 -2.9492,2.84179 v 0 248.01366 0 c 0.08,1.57692 1.3705,2.8208 2.9492,2.8418 h 18.4747 v 0.0215 c 1.0802,0.003 2.1784,-0.0149 3.2675,-0.0215 0,0 26.422,0.0319 27.426,0.0273 0.1361,-0.0449 102.3131,4.34486 102.4732,-126.86549 0.1601,-131.21035 -102.4829,-126.85716 -102.4829,-126.85716 -0.7123,0.005 -13.6701,-0.0129 -22.1292,-0.006 z m 11.7539,22.23437 c 0.045,-1.8e-4 0.09,-1.8e-4 0.1348,0 h 10.2246 c 0,0 75.4671,-1.7308 76.4588,104.61544 0.9917,106.34624 -76.4458,104.6033 -76.4458,104.6033 -3.0456,0.0302 -7.5504,0.021 -10.3724,0.0178 -9.2096,-0.009 -16.7967,-7.23345 -17.2558,-16.43164 h -0.035 v -0.86914 -34.61523 h 0.01 V 186.39896 h -0.01 v -34.61523 -0.86915 h 0.035 c 0.3915,-7.84351 5.9725,-14.23398 13.3164,-15.95703 1.1722,-0.21369 2.3399,-0.36553 3.4844,-0.45312 0.1527,-0.004 0.3014,-0.0213 0.455,-0.0215 z"
       style="display:inline;opacity:1;fill:#000000;stroke-width:1.26817119" />
    <path
       inkscape:connector-curvature="0"
       id="path348"
       d="m 27.818359,112.23632 c -1.57878,0.021 -2.869718,1.26487 -2.949218,2.84179 h -0.0039 v 165.90821 1.0625 h 0.0059 c 0.01498,3.04171 0.02663,6.12967 0.04688,9.0957 0.217448,59.67895 35.159564,74.88578 77.759769,74.8418 0.005,-10e-6 0.0104,0 0.0156,0 42.60019,0.044 77.5423,-15.16285 77.75976,-74.8418 0.0226,-3.3125 0.035,-6.77542 0.0527,-10.1582 h -0.0352 V 115.07811 h -0.004 c -0.0795,-1.57692 -1.37044,-2.82079 -2.94922,-2.84179 h -12.56641 -5.93555 c -1.59387,10e-4 -2.90692,1.25186 -2.98632,2.84375 h -0.006 v 35.81836 0.86914 31.5918 3.02343 h -0.006 v 94.60352 h -0.0156 v 10.85351 h 0.008 c -1.62424,51.57203 -31.72445,51.32252 -53.31641,51.32227 h -0.0156 c -21.59196,2.5e-4 -51.692177,0.24976 -53.31641,-51.32227 h 0.0078 V 280.98632 H 49.3201 V 186.3828 h -0.0078 v -3.02343 -31.5918 -0.86914 -35.81836 h -0.0059 c -0.0794,-1.59189 -1.392459,-2.84227 -2.986329,-2.84375 h -5.935546 z"
       style="display:inline;fill:#000000;stroke-width:0.98609006" />
  </g>
</svg>
